<?xml version="1.0" encoding="UTF-8"?>
<svg version="1.1" viewBox="0 0 800 800" xmlns="http://www.w3.org/2000/svg">
 <path d="m35.006 160.32c-19.392 0-35.006 15.611-35.006 35.003v424.16c0 19.392 15.614 35.003 35.006 35.003h729.99c19.392 0 35.003-15.611 35.003-35.003v-424.16c0-19.392-15.611-35.003-35.003-35.003h-729.99zm580.24 34.977h120.18c14.409 0 26.008 11.6 26.008 26.008 0 14.409-11.6 26.012-26.008 26.012h-120.18c-14.409 0-26.008-11.603-26.008-26.012s11.6-26.008 26.008-26.008zm-214.35 8.0709a202.69 202.69 0 0 1 202.69 202.69 202.69 202.69 0 0 1 -202.69 202.69 202.69 202.69 0 0 1 -202.69 -202.69 202.69 202.69 0 0 1 202.69 -202.69z" color="#000000" color-rendering="auto" fill="#2f2f2f" image-rendering="auto" shape-rendering="auto" solid-color="#000000" style="isolation:auto;mix-blend-mode:normal"/>
 <circle cx="400.9" cy="406.06" r="126.46" color="#000000" color-rendering="auto" fill="#2f2f2f" image-rendering="auto" shape-rendering="auto" solid-color="#000000" style="isolation:auto;mix-blend-mode:normal"/>
</svg>
